<svg version="1.2" xmlns="http://www.w3.org/2000/svg" viewBox="0 0 84 108" width="84" height="108"><defs><clipPath clipPathUnits="userSpaceOnUse" id="cp1"><path d="m-225-5043h1920v6631h-1920z"/></clipPath></defs><style>.a{fill:#f00}</style><g clip-path="url(#cp1)"><path fill-rule="evenodd" class="a" d="m66.8 107.4h-50.2c2.2-6.3 0.2-12.2-1-18.1q-0.2 0-0.4-0.1-1 2.3-1.9 4.6-0.9 2.4-0.7 4.9c0.2 2.9 0.3 5.8 0.5 8.7h-12.1c-0.7-6-1.2-11.9-0.2-17.9 1.2-7.2 2.1-14.5 3.2-21.7q0.6-4.7 1.3-9.4c0.1-1.3 0.8-2.2 2.1-2.6q7.2-2.8 14.3-5.6c2.2-0.9 4.4-1.8 5.9-3.8q-1.1 13.9 2.6 27.2c2.5 8.9 6.2 17.2 11.9 24.8 10.1-16 15.4-33.1 14.1-52.2 0.4 0.3 0.7 0.4 0.8 0.6 1 1.3 2.3 2.1 3.8 2.7 5.2 2 10.4 4.1 15.7 6.1 1.4 0.6 2.2 1.4 2.4 3 1.2 9.1 2.6 18.3 3.8 27.5 0.5 3.5 1.1 7.1 1.1 10.6 0 3.6-0.6 7.1-0.9 10.7h-12.5c0.1-1.9 0.3-3.7 0.4-5.5q0.1-2.5 0.1-5c-0.1-2.8-1.4-5.1-2.7-7.5-1.4 5.9-3.2 11.8-1.4 18zm-3.4-33.4v0.1c1.5 0 2.9 0 4.3 0 1.2 0 2.3-1 2.3-2 0.1-1-0.7-1.7-2.1-1.8q-4.4 0-8.8 0c-1.3 0.1-1.8 0.7-1.8 1.8 0 1.3 0.5 1.8 1.8 1.9 1.5 0 2.9 0 4.3 0z"/><path fill-rule="evenodd" class="a" d="m56.9 16c0 0.7-0.1 1.7-0.1 2.8-0.1 0.7 0.1 1.2 0.8 1.7 0.4 0.3 0.8 1 0.9 1.5 0.3 1.9 0.1 3.8-1 5.5-1.7 2.8-3.3 5.5-5.1 8.2-1.9 3-4.4 5.3-8 6-4.6 1-8.3-0.7-11.3-4.1q-1-1-1.7-2.2c-1.6-2.6-3.2-5.2-4.9-7.8-1.1-1.8-1.3-3.7-1-5.7 0.1-0.5 0.6-1 1-1.3 0.6-0.4 0.9-0.9 0.8-1.6-0.1-1.1-0.2-2.2-0.3-3.3-0.3-3.6 0.2-7.1 2.5-10.2 2-2.6 4.7-4 7.8-4.8 4.7-1.3 9.2-0.7 13.5 1.6 3.9 2.1 5.8 5.5 6.1 9.9 0.1 1.2 0 2.3 0 3.8zm-28.7 5.8c-0.7 1-0.9 1.9-0.5 2.9 1.9 3.9 3.9 7.8 6.7 11.2 3.8 4.8 11.6 4.7 15.1-0.4 2.2-3.2 4.1-6.7 6-10.2 0.5-0.9 1-1.9 0.4-3-0.2-0.4-0.5-0.6-1-0.4-0.4 0.2-0.9 0.3-1.4 0.5 0-0.5 0-0.9 0-1.2q0.2-2 0.4-4c0.3-2.8-1.5-5.6-4.1-6.5-0.9-0.4-1.8-0.3-2.6 0.4-3.6 3.4-8.1 5-13 5.6q-2.3 0.2-4.7 0.5c0.2 1.8 0.4 3.4 0.6 5.2-0.8-0.2-1.3-0.4-1.9-0.6z"/><path class="a" d="m45.9 51.1c-0.4-0.2-0.9-0.4-1.2-0.7-0.1-0.1 0.2-0.7 0.4-1-0.2-0.2-0.4-0.4-0.7-0.7 0.3-0.2 0.5-0.6 0.9-0.7 1.3-0.6 2.7-1.2 4-1.7 1.1-0.4 1.6-0.1 2 1 0.8 1.9 1 3.9 0.2 5.9-0.5 1.1-0.9 1.4-2.1 1-1.5-0.5-2.9-1.1-4.3-1.7-0.2-0.1-0.3-0.5-0.5-0.7q0.4-0.3 0.9-0.5c0.1-0.1 0.2-0.1 0.4-0.1q0-0.1 0-0.1z"/><path class="a" d="m39.6 48.3c0 1.7-1.1 0.9-1.8 1 1.3 1.4 1.3 1.4 0.5 2.1 0.2 0 0.4 0 0.5 0 0.2 0.1 0.6 0.3 0.7 0.4 0 0.3-0.2 0.7-0.4 0.8-1.6 0.7-3.2 1.3-4.9 1.8-0.4 0.1-1.1-0.3-1.3-0.7-1-2-1.3-4.1-0.4-6.3 0.4-1 1-1.4 2-1 1.8 0.5 3.5 1.3 5.1 1.9z"/><path class="a" d="m39.3 72.9c2 1.5 3.8 2.8 5.6 4.3 0.4 0.2 0.7 0.8 0.8 1.2 0.2 1.5 0.3 3 0.5 4.7-0.8-0.6-1.5-1.1-2.1-1.6-1.6-1.2-3.1-2.4-4.6-3.5-0.5-0.4-0.7-0.7-0.6-1.3 0.2-1.2 0.3-2.4 0.4-3.8z"/><path class="a" d="m38.8 78.1c2.5 1.9 4.8 3.6 7.1 5.5 0.7 0.5 0.6 1.1 0 1.7-0.5 0.4-1.1 0.8-1.5 1.2-0.4 0.4-0.7 0.3-1.1 0q-2-1.6-4-3c-0.8-0.6-1.1-1.3-0.9-2.3 0.2-0.9 0.3-2 0.4-3.1z"/><path class="a" d="m45.5 77c-2-1.6-3.9-3-5.7-4.5-0.2-0.1-0.3-0.6-0.3-0.9 0.1-1.2 0.2-2.4 0.4-3.7 0.2 0.1 0.4 0.1 0.5 0.2 1.3 0.9 2.5 1.8 3.7 2.8 0.4 0.4 0.8 1 0.9 1.5 0.3 1.5 0.4 2.9 0.5 4.6z"/><path class="a" d="m44.8 70.9c-1.7-1.3-3.2-2.4-4.6-3.6-0.2-0.1-0.3-0.5-0.2-0.7 0.1-1.3 0.2-2.6 0.4-4.1 0.8 0.7 1.5 1.3 2.2 1.7 1.2 0.8 1.9 1.7 1.8 3.2 0 1.1 0.2 2.2 0.4 3.5z"/><path class="a" d="m40.4 60.3c-0.5-0.5-0.6-0.9 0-1.4 1.5-1.1 2.9-2.2 4.4-3.3 0.3-0.2 0.8-0.2 1 0 0.2 0.2 0.3 0.7 0.2 1-0.1 0.5-0.4 1-0.8 1.3-1.1 0.9-2 2.1-3.7 2.1-0.4-0.1-0.7 0.2-1.1 0.3z"/><path class="a" d="m43.7 50.6c-0.1 1.5-0.4 1.8-1.7 1.8-1.5 0-2-0.5-2-1.9q0-2.1 1.9-2c1.3 0 1.8 0.6 1.8 2.1z"/><path class="a" d="m44.5 55.1c-1.6 1.3-3.2 2.6-4.8 3.9 0 0-0.1-0.1-0.1-0.1-1-1.6-1-1.5 0.3-2.9 1.3-1.2 2.6-1.7 4.3-1.1q0.1 0 0.2 0c0.1 0.1 0.1 0.1 0.1 0.2z"/><path class="a" d="m43.3 87.2c-1 1.1-1 1.1-2 0.3-0.8-0.5-1.5-1.2-2.2-1.6-1-0.6-1.3-1.4-0.9-2.6 1.7 1.3 3.4 2.6 5.1 3.9z"/><path class="a" d="m44.1 64.8c-1.3-1-2.3-1.8-3.4-2.7-0.1-0.1-0.1-0.6 0-0.7 0.6-0.6 2.1-0.6 2.7-0.1 0.2 0.1 0.3 0.3 0.4 0.5 0.1 0.9 0.2 1.8 0.3 3z"/><path class="a" d="m41 54.7q-1.2 1-2.5 2c-0.7-0.9-0.2-1.5 2.5-2z"/><path class="a" d="m44.2 60.3c-0.3-0.1-0.5-0.3-0.8-0.4 0.7-0.6 1.3-1.2 1.9-1.7q0.1 0.1 0.2 0.2c-0.4 0.6-0.8 1.2-1.3 1.9z"/><path class="a" d="m63.4 74c-1.4 0-2.8 0-4.3 0-1.3-0.1-1.8-0.6-1.8-1.9 0-1.1 0.5-1.7 1.8-1.8q4.4 0 8.8 0c1.4 0.1 2.2 0.8 2.1 1.8 0 1-1.1 2-2.3 2-1.4 0-2.8 0-4.3 0z"/><path class="a" d="m28.2 21.8c0.6 0.2 1.1 0.4 1.9 0.6-0.2-1.8-0.4-3.4-0.6-5.2q2.4-0.3 4.7-0.5c4.9-0.6 9.4-2.2 13-5.6 0.8-0.7 1.7-0.8 2.6-0.4 2.6 0.9 4.4 3.7 4.1 6.5q-0.2 2-0.4 4c0 0.3 0 0.7 0 1.2 0.5-0.2 1-0.3 1.4-0.5 0.5-0.2 0.8 0 1 0.4 0.6 1.1 0.1 2.1-0.4 3-1.9 3.5-3.8 7-6 10.2-3.5 5.1-11.3 5.2-15.1 0.4-2.8-3.4-4.8-7.3-6.7-11.2-0.4-1-0.2-1.9 0.5-2.9z"/></g></svg>